<?xml version="1.0" standalone="no"?>
<!DOCTYPE svg PUBLIC "-//W3C//DTD SVG 20010904//EN"
 "http://www.w3.org/TR/2001/REC-SVG-20010904/DTD/svg10.dtd">
<svg version="1.0" xmlns="http://www.w3.org/2000/svg"
 width="1080.000000pt" height="661.000000pt" viewBox="0 0 1080.000000 661.000000"
 preserveAspectRatio="xMidYMid meet">
<metadata>
Created by potrace 1.16, written by Peter Selinger 2001-2019
</metadata>
<g transform="translate(0.000000,661.000000) scale(0.100000,-0.100000)"
fill="#000000" stroke="none">
<path d="M601 6288 c-39 -11 -79 -53 -91 -98 -7 -25 -9 -1039 -8 -3017 l3
-2980 28 -36 c18 -24 41 -40 66 -47 26 -7 1485 -9 4622 -8 3747 3 4589 5 4609
16 14 7 35 28 48 46 l22 32 0 3001 0 3000 -23 34 c-12 19 -34 39 -47 46 -19 9
-1100 12 -4612 15 -2524 2 -4601 0 -4617 -4z m2107 -2148 c24 -23 28 -47 9
-71 -14 -18 -223 -129 -230 -122 -3 2 -1 18 5 34 7 22 7 33 -3 45 -7 9 -9 18
-3 24 16 16 177 110 189 110 6 0 21 -9 33 -20z m477 -10 c17 -11 51 -31 77
-46 26 -15 45 -30 43 -34 -3 -5 3 -11 12 -14 15 -6 15 -9 3 -16 -8 -5 -14 -23
-13 -43 l1 -35 -86 44 c-47 25 -93 44 -101 42 -9 -2 -100 -52 -203 -112 l-188
-109 0 -513 0 -513 -22 -21 c-22 -20 -48 -19 -75 2 -10 8 -13 131 -13 554 0
626 -15 550 121 631 323 192 343 202 384 202 17 0 44 -9 60 -19z m-25 -252
c18 -20 20 -35 20 -163 0 -159 -9 -185 -60 -185 -40 0 -50 23 -50 119 0 51 -4
81 -11 81 -6 0 -30 -11 -54 -25 l-43 -26 -4 -129 c-3 -115 -5 -131 -23 -144
-27 -21 -51 -20 -75 4 -18 18 -20 33 -20 168 0 163 0 165 66 205 59 37 213
117 224 117 5 0 18 -10 30 -22z m2808 -227 c2 -23 -2 -37 -12 -43 -23 -13 -24
-216 -1 -224 9 -4 15 -19 15 -40 l0 -34 -80 0 -80 0 0 35 c0 22 6 38 15 41 12
5 15 27 15 115 0 90 -3 109 -15 109 -10 0 -15 10 -15 33 0 19 3 37 7 41 4 4
39 5 78 4 l70 -3 3 -34z m-1224 -2 c14 -17 26 -39 26 -50 0 -15 -7 -19 -39
-19 -23 0 -44 6 -51 15 -10 12 -29 15 -74 13 l-61 -3 -3 -107 -3 -108 69 0
c51 0 73 4 82 16 8 9 25 14 44 12 41 -4 45 -34 11 -70 -25 -27 -29 -28 -132
-28 -96 0 -109 2 -130 22 -22 20 -23 29 -23 152 0 127 1 130 27 158 26 27 30
28 129 28 102 0 102 0 128 -31z m486 -39 l0 -70 65 0 65 0 0 70 0 70 50 0 50
0 0 -186 0 -185 -47 3 -48 3 -3 73 -3 72 -64 0 -64 0 -3 -72 -3 -73 -45 0 -45
0 -3 183 -2 182 50 0 50 0 0 -70z m1384 41 c52 -54 12 -107 -50 -66 -18 11
-42 15 -87 13 l-62 -3 -3 -80 c-4 -122 -3 -125 67 -125 40 0 63 5 71 15 7 9
29 15 51 15 35 0 39 -3 39 -25 0 -15 -13 -37 -31 -55 -31 -29 -34 -30 -134
-30 -98 0 -102 1 -128 28 -27 28 -27 30 -27 162 0 124 2 135 22 157 20 21 29
23 133 23 110 0 112 0 139 -29z m685 0 c28 -29 28 -29 27 -154 -1 -118 -2
-127 -25 -151 -24 -25 -29 -26 -141 -26 l-116 0 -22 30 c-20 26 -22 41 -22
152 0 119 1 123 27 150 26 27 29 28 135 28 107 0 109 -1 137 -29z m-4135 -303
c14 -19 16 -71 16 -360 0 -334 0 -337 -22 -358 -26 -24 -45 -25 -70 -3 -17 15
-18 38 -18 300 0 195 -3 283 -11 283 -6 0 -30 -12 -55 -26 l-44 -26 0 -319 c0
-306 -1 -320 -20 -339 -11 -11 -29 -20 -40 -20 -11 0 -29 9 -40 20 -19 19 -20
33 -20 364 l0 344 24 23 c36 35 228 138 258 138 17 1 33 -7 42 -21z m-472
-760 c32 -22 43 -50 29 -77 -18 -33 -47 -35 -103 -4 -29 15 -55 30 -58 34 -3
3 -23 18 -45 32 -30 20 -35 27 -20 27 16 0 17 2 6 9 -8 5 -11 16 -8 24 3 9 1
18 -6 20 -9 3 -9 7 0 19 7 8 9 18 5 23 -10 11 167 -84 200 -107z"/>
<path d="M7097 3604 c-4 -4 -7 -54 -7 -111 l0 -104 73 3 72 3 0 105 0 105 -65
3 c-36 2 -69 0 -73 -4z"/>
</g>
</svg>
